<?xml version="1.0" encoding="UTF-8"?>
<!DOCTYPE svg PUBLIC "-//W3C//DTD SVG 1.1//EN" "http://www.w3.org/Graphics/SVG/1.1/DTD/svg11.dtd">
<!-- Creator: CorelDRAW 2020 (64-Bit) -->
<svg xmlns="http://www.w3.org/2000/svg" xml:space="preserve" width="33.0728mm" height="33.0728mm" version="1.1" style="shape-rendering:geometricPrecision; text-rendering:geometricPrecision; image-rendering:optimizeQuality; fill-rule:evenodd; clip-rule:evenodd"
viewBox="0 0 3307.28 3307.28"
 xmlns:xlink="http://www.w3.org/1999/xlink"
 xmlns:xodm="http://www.corel.com/coreldraw/odm/2003">
 <defs>
  <style type="text/css">
   <![CDATA[
    .str0 {stroke:#FEFEFE;stroke-width:211.67;stroke-linecap:round;stroke-linejoin:round;stroke-miterlimit:22.9256}
    .fil0 {fill:none}
    .fil1 {fill:#2C3762}
   ]]>
  </style>
 </defs>
 <g id="Слой_x0020_1">
  <metadata id="CorelCorpID_0Corel-Layer"/>
  <path class="fil0 str0" d="M2148.24 648.61l0 -439.23m540.9 976.05l418.88 0m-418.88 475.83l235.87 0m-1244.46 -1272.93l0 260.28 1008.59 0 0 1476.27 406.68 0"/>
  <path class="fil0 str0" d="M2136.04 2692.21l0 451.42m-479.89 -469.72l0 264.35m-475.83 -244.01l0 418.88m-538.77 -1004.52l-427.02 0m427.02 -465.65l-248.08 0m229.69 -457.53l-390.42 0m967.92 -947.58l0 402.62 -544.96 0 0 2004.97 2000.9 0"/>
  <rect class="fil1 str0" x="1054.25" y="1039.03" width="1203.79" height="1203.79"/>
 </g>
</svg>
